<svg width="16" height="16" viewBox="0 0 16 16" fill="none" xmlns="http://www.w3.org/2000/svg">
<path d="M8 16C10.1217 16 12.1566 15.1571 13.6569 13.6569C15.1571 12.1566 16 10.1217 16 8C16 5.87827 15.1571 3.84344 13.6569 2.34315C12.1566 0.842855 10.1217 0 8 0C5.87827 0 3.84344 0.842855 2.34315 2.34315C0.842855 3.84344 0 5.87827 0 8C0 10.1217 0.842855 12.1566 2.34315 13.6569C3.84344 15.1571 5.87827 16 8 16ZM8 14.5C6.27609 14.5 4.62279 13.8152 3.40381 12.5962C2.18482 11.3772 1.5 9.72391 1.5 8C1.5 6.27609 2.18482 4.62279 3.40381 3.40381C4.62279 2.18482 6.27609 1.5 8 1.5C9.72391 1.5 11.3772 2.18482 12.5962 3.40381C13.8152 4.62279 14.5 6.27609 14.5 8C14.5 9.72391 13.8152 11.3772 12.5962 12.5962C11.3772 13.8152 9.72391 14.5 8 14.5Z" fill="black"/>
<path d="M8 2.5C6.80653 2.5 5.66193 2.97411 4.81802 3.81802C3.97411 4.66193 3.5 5.80653 3.5 7C3.5 8.19347 3.97411 9.33807 4.81802 10.182C5.66193 11.0259 6.80653 11.5 8 11.5C9.19347 11.5 10.3381 11.0259 11.182 10.182C12.0259 9.33807 12.5 8.19347 12.5 7C12.5 5.80653 12.0259 4.66193 11.182 3.81802C10.3381 2.97411 9.19347 2.5 8 2.5Z" fill="black"/>
</svg>