<svg width="17" height="16" viewBox="0 0 17 16" fill="none" xmlns="http://www.w3.org/2000/svg">
<path fill-rule="evenodd" clip-rule="evenodd" d="M3.49073 1.3015L3.30873 2.1505C3.29349 2.22246 3.25769 2.28844 3.20568 2.34045C3.15368 2.39246 3.08769 2.42826 3.01573 2.4435L2.16673 2.6255C1.76473 2.7125 1.76473 3.2865 2.16673 3.3725L3.01573 3.5555C3.08769 3.57074 3.15368 3.60654 3.20568 3.65855C3.25769 3.71056 3.29349 3.77654 3.30873 3.8485L3.49073 4.6975C3.57773 5.0995 4.15173 5.0995 4.23773 4.6975L4.42073 3.8485C4.43598 3.77654 4.47177 3.71056 4.52378 3.65855C4.57579 3.60654 4.64178 3.57074 4.71373 3.5555L5.56173 3.3725C5.96373 3.2855 5.96373 2.7115 5.56173 2.6255L4.71273 2.4435C4.64083 2.42814 4.57491 2.3923 4.52292 2.34031C4.47093 2.28832 4.43509 2.2224 4.41973 2.1505L4.23773 1.3015C4.15073 0.8995 3.57673 0.8995 3.49073 1.3015ZM10.8647 13.9995C10.4853 14.0056 10.1158 13.8782 9.82067 13.6397C9.52553 13.4013 9.32347 13.0667 9.24973 12.6945L8.89273 11.0275C8.83676 10.7687 8.70738 10.5316 8.52009 10.3445C8.3328 10.1574 8.09554 10.0282 7.83673 9.9725L6.16973 9.6155C5.38873 9.4465 4.86473 8.7975 4.86473 7.9995C4.86473 7.2015 5.38873 6.5525 6.16973 6.3845L7.83673 6.0275C8.09551 5.97135 8.33267 5.84193 8.51992 5.65468C8.70716 5.46744 8.83658 5.23028 8.89273 4.9715L9.25073 3.3045C9.41773 2.5235 10.0667 1.9995 10.8647 1.9995C11.6627 1.9995 12.3117 2.5235 12.4797 3.3045L12.8367 4.9715C12.9507 5.4995 13.3647 5.9135 13.8927 6.0265L15.5597 6.3835C16.3407 6.5525 16.8647 7.2015 16.8647 7.9995C16.8647 8.7975 16.3407 9.4465 15.5597 9.6145L13.8927 9.9715C13.6337 10.0275 13.3963 10.157 13.209 10.3445C13.0217 10.5319 12.8925 10.7694 12.8367 11.0285L12.4787 12.6945C12.4054 13.0667 12.2036 13.4014 11.9086 13.6399C11.6135 13.8784 11.2441 14.0057 10.8647 13.9995ZM10.8647 3.2495C10.7667 3.2495 10.5337 3.2795 10.4727 3.5655L10.1147 5.2335C10.0081 5.72777 9.76116 6.18082 9.40361 6.53837C9.04606 6.89593 8.59301 7.14283 8.09873 7.2495L6.43173 7.6065C6.14573 7.6685 6.11473 7.9015 6.11473 7.9995C6.11473 8.0975 6.14573 8.3305 6.43173 8.3925L8.09873 8.7495C8.59301 8.85617 9.04606 9.10307 9.40361 9.46063C9.76116 9.81818 10.0081 10.2712 10.1147 10.7655L10.4727 12.4335C10.5337 12.7195 10.7667 12.7495 10.8647 12.7495C10.9627 12.7495 11.1957 12.7195 11.2567 12.4335L11.6147 10.7655C11.7213 10.2712 11.9682 9.81818 12.3258 9.46063C12.6833 9.10307 13.1363 8.85617 13.6306 8.7495L15.2976 8.3925C15.5836 8.3305 15.6146 8.0975 15.6146 7.9995C15.6146 7.9015 15.5836 7.6685 15.2976 7.6065L13.6306 7.2495C13.1363 7.14283 12.6833 6.89593 12.3258 6.53837C11.9682 6.18082 11.7213 5.72777 11.6147 5.2335L11.2567 3.5655C11.1957 3.2795 10.9627 3.2495 10.8647 3.2495Z" fill="black"/>
</svg>